<svg id="Group_2194" data-name="Group 2194" xmlns="http://www.w3.org/2000/svg" xmlns:xlink="http://www.w3.org/1999/xlink" width="13" height="13" viewBox="0 0 13 13">
  <defs>
    <clipPath id="clip-path">
      <rect id="Rectangle_2324" data-name="Rectangle 2324" width="13" height="13" fill="#fff"/>
    </clipPath>
  </defs>
  <g id="Group_1780" data-name="Group 1780" clip-path="url(#clip-path)">
    <path id="Path_2601" data-name="Path 2601" d="M282.414,6.893v.025l-.064.034-.02-.01.016.014c-.029.049-.056.1-.087.147a.882.882,0,0,1-.724.469c-1.38.011-2.76,0-4.14,0a.839.839,0,0,1-.562-.176.918.918,0,0,1-.395-.7c-.007-1.946,0-3.891,0-5.837a.344.344,0,0,1,.018-.108c.042-.125.088-.25.133-.374l.076-.053L276.786.2l.027-.018.208-.133c.044.012.083.015.072-.051h4.536c.022.016.042.04.067.046a.923.923,0,0,1,.693.934q0,2.666,0,5.333c0,.154-.019.308-.021.462a.333.333,0,0,0,.048.117" transform="translate(-269.414)" fill="#fff"/>
    <path id="Path_2602" data-name="Path 2602" d="M0,219.248v-5.8c.007,0,.018-.008.019-.013a.943.943,0,0,1,.95-.744c1.384.008,2.767.013,4.151.025a.812.812,0,0,1,.59.3,1.028,1.028,0,0,1,.24.722q0,2.737,0,5.474a1.273,1.273,0,0,1-.2.7l-.026.02-.355.262a2.692,2.692,0,0,1-.423.069c-.827.007-1.654,0-2.48,0l-1.455,0-.081-.1-.1.093-.1-.015c.011-.1-.024-.141-.129-.128a.155.155,0,0,1-.106-.045c-.123-.117-.242-.239-.37-.366.052-.128.035-.163-.106-.172H0v-.051c.021-.02.044-.038.064-.059.073-.078.048-.143-.064-.169" transform="translate(0 -207.287)" fill="#fff"/>
    <path id="Path_2603" data-name="Path 2603" d="M5.322,0A.449.449,0,0,0,5.4.088a1.507,1.507,0,0,1,.359.251,1.392,1.392,0,0,1,.172.44.877.877,0,0,1,.024.249c0,.747,0,1.494,0,2.241A1.055,1.055,0,0,1,5.71,4a.918.918,0,0,1-.695.326q-2.064.007-4.128,0A.87.87,0,0,1,.329,4.1L.3,4.081A1.127,1.127,0,0,1,0,3.573V.735A3.719,3.719,0,0,1,.235.316.925.925,0,0,1,.786,0Z" fill="#fff"/>
    <path id="Path_2604" data-name="Path 2604" d="M0,471.08c.112.027.137.091.064.169-.02.021-.043.039-.064.059v-.228" transform="translate(0 -459.119)" fill="#fff"/>
    <path id="Path_2605" data-name="Path 2605" d="M299.567,508.922q0,.023,0,.046h-.152v-.079l.151.033" transform="translate(-291.813 -495.968)" fill="#fff"/>
    <path id="Path_2606" data-name="Path 2606" d="M299.589.051,299.61,0h.051c.011.066-.028.062-.072.051" transform="translate(-291.982)" fill="#fff"/>
    <path id="Path_2607" data-name="Path 2607" d="M475.2,0h0Z" transform="translate(-463.01)" fill="#fff"/>
    <path id="Path_2608" data-name="Path 2608" d="M0,134.737v0Z" transform="translate(0 -131.316)" fill="#fff"/>
    <path id="Path_2609" data-name="Path 2609" d="M308.5,0h0Z" transform="translate(-300.568)" fill="#fff"/>
    <path id="Path_2610" data-name="Path 2610" d="M0,245.521v0Z" transform="translate(0 -239.287)" fill="#fff"/>
    <path id="Path_2611" data-name="Path 2611" d="M282.44,12.954l.076-.053-.076.053" transform="translate(-275.269 -12.573)" fill="#fff"/>
    <path id="Path_2612" data-name="Path 2612" d="M290.355,7.266l.027-.018-.027.018" transform="translate(-282.983 -7.064)" fill="#fff"/>
    <path id="Path_2613" data-name="Path 2613" d="M508.7,273.434l-.016-.014.02.01,0,0" transform="translate(-495.767 -266.478)" fill="#fff"/>
    <path id="Path_2614" data-name="Path 2614" d="M1.606,482.807a.9.9,0,0,1-.711-.711c.141.01.158.044.106.172.127.127.246.249.37.366a.154.154,0,0,0,.106.045c.1-.013.14.031.129.128" transform="translate(-0.872 -469.855)" fill="#fff"/>
    <path id="Path_2615" data-name="Path 2615" d="M33.11,507.132l-.177,0,.1-.093.081.1" transform="translate(-32.097 -494.161)" fill="#fff"/>
    <path id="Path_2616" data-name="Path 2616" d="M225.6,497.042l-.026.02.026-.02" transform="translate(-219.844 -484.422)" fill="#fff"/>
    <path id="Path_2617" data-name="Path 2617" d="M277.222,344.7l-.151-.033-.2-.131-.026-.018-.125-.126-.069-.053a1.56,1.56,0,0,1-.157-.863c0-.739,0-1.478,0-2.217a.985.985,0,0,1,.2-.518l.052-.051.05-.051.051-.045.048-.032.028-.019a1.094,1.094,0,0,1,.572-.155q1.976,0,3.951,0a1.037,1.037,0,0,1,.628.191.847.847,0,0,1,.349.591c.013.133.024.266.024.4,0,.709,0,1.418,0,2.128a1.075,1.075,0,0,1-.248.719.779.779,0,0,1-.6.3c-1.427,0-2.854,0-4.28,0a.52.52,0,0,1-.1-.018" transform="translate(-269.468 -331.75)" fill="#fff"/>
    <path id="Path_2618" data-name="Path 2618" d="M283.895,352.315l-.052.051c-.048-.083.035-.033.052-.051" transform="translate(-276.622 -343.369)" fill="#fff"/>
    <path id="Path_2619" data-name="Path 2619" d="M288.461,347.738l-.052.045.005-.066.046.021" transform="translate(-281.087 -338.888)" fill="#fff"/>
    <path id="Path_2620" data-name="Path 2620" d="M282.692,496.026l.069.053-.069-.053" transform="translate(-275.514 -483.432)" fill="#fff"/>
    <path id="Path_2621" data-name="Path 2621" d="M11.864,160.727l.028.021-.028-.021" transform="translate(-11.563 -156.646)" fill="#fff"/>
    <path id="Path_2622" data-name="Path 2622" d="M292.337,346.539l-.028.019.028-.019" transform="translate(-284.887 -337.74)" fill="#fff"/>
    <path id="Path_2623" data-name="Path 2623" d="M290.358,503.043l.027.018-.027-.018" transform="translate(-282.986 -490.27)" fill="#fff"/>
  </g>
</svg>
