<svg id="Group_2158" data-name="Group 2158" xmlns="http://www.w3.org/2000/svg" xmlns:xlink="http://www.w3.org/1999/xlink" width="10.635" height="12.13" viewBox="0 0 10.635 12.13">
  <defs>
    <clipPath id="clip-path">
      <rect id="Rectangle_1841" data-name="Rectangle 1841" width="10.634" height="12.13" fill="#fff"/>
    </clipPath>
  </defs>
  <g id="Group_1476" data-name="Group 1476" clip-path="url(#clip-path)">
    <path id="Path_1017" data-name="Path 1017" d="M6.855,0A1.19,1.19,0,0,1,7.8,1.422c.833.135,3.138-.517,2.8.95a.716.716,0,0,1-.743.47q-4.542,0-9.084,0a.712.712,0,0,1-.217-1.4c.761-.046,1.518,0,2.283-.018A1.165,1.165,0,0,1,3.775,0h3.08m.237,1.418C7.272.39,6.232.782,5.6.712H3.931c-.431-.01-.4.4-.384.707Z" transform="translate(0 -0.001)" fill="#fff"/>
    <path id="Path_1018" data-name="Path 1018" d="M19.591,50.477c-.156,1.944-.321,3.878-.482,5.82-.161.974.188,2.717-1.235,2.748q-2.873,0-5.746,0a1.057,1.057,0,0,1-1.086-.99c-.077-.841-.142-1.683-.212-2.525-.131-1.684-.3-3.372-.409-5.054Zm-6.009,6.829c-.122-2-.233-3.818-.359-5.791-.081-.568-.849-.337-.7.195q.175,2.787.348,5.575c0,.449.738.423.712.022m2.842-.071a.355.355,0,1,0,.709.046c.115-1.911.246-3.821.354-5.732a.354.354,0,0,0-.707-.024c-.119,1.919-.233,3.773-.355,5.709m-1.778-2.844q0,1.392,0,2.783c0,.285.131.449.355.449s.356-.165.356-.449q0-2.772,0-5.543a.382.382,0,0,0-.24-.428.355.355,0,0,0-.47.369q0,1.409,0,2.819" transform="translate(-9.686 -46.917)" fill="#fff"/>
  </g>
</svg>
