<svg xmlns="http://www.w3.org/2000/svg" width="10.085" height="10.073" viewBox="0 0 10.085 10.073">
  <g id="Group_1380" data-name="Group 1380" transform="translate(0 0)">
    <path id="Path_919" data-name="Path 919" d="M6.227,82.473.679,88.022a.221.221,0,0,0-.058.1L.006,90.591a.218.218,0,0,0,.212.271.217.217,0,0,0,.053-.007l2.468-.615a.218.218,0,0,0,.1-.058L8.39,84.635Zm0,0" transform="translate(0 -80.789)" fill="#232932"/>
    <path id="Path_920" data-name="Path 920" d="M337.247,1.174l-.618-.618a1.118,1.118,0,0,0-1.545,0l-.757.757,2.162,2.162.757-.757a1.092,1.092,0,0,0,0-1.545Zm0,0" transform="translate(-327.482 -0.246)" fill="#232932"/>
  </g>
</svg>
