<svg xmlns="http://www.w3.org/2000/svg" width="40" height="40" viewBox="0 0 40 40">
  <g id="Group_1191" data-name="Group 1191" transform="translate(-27 -104)">
    <g id="Ellipse_8" data-name="Ellipse 8" transform="translate(27 104)" fill="none" stroke="#ebf3ff" stroke-width="2" opacity="0.099">
      <circle cx="20" cy="20" r="20" stroke="none"/>
      <circle cx="20" cy="20" r="19" fill="none"/>
    </g>
    <path id="Union_2" data-name="Union 2" d="M5.03,8.93a.75.75,0,0,1,0-1.06L7.95,4.95H.75a.75.75,0,0,1,0-1.5H7.2L5.03,1.281A.75.75,0,0,1,6.091.22L9.662,3.791a.75.75,0,0,1,.535.784.75.75,0,0,1-.535.784L6.091,8.93a.75.75,0,0,1-1.061,0Z" transform="translate(52.1 128.575) rotate(180)" fill="#fff"/>
  </g>
</svg>
