<svg xmlns="http://www.w3.org/2000/svg" width="12" height="9.333" viewBox="0 0 12 9.333">
  <g id="Group_1265" data-name="Group 1265" transform="translate(-1032 -611)">
    <g id="Path_583" data-name="Path 583" transform="translate(1034 611)" fill="none">
      <path d="M4,0c4.364.027,5.969,4.525,6,4.666s-1.763,4.7-6,4.666S-1.986,4.771-2,4.666-.364-.027,4,0Z" stroke="none"/>
      <path d="M 3.961190700531006 1.499808311462402 C 1.397600173950195 1.499808311462402 0.07057619094848633 3.703003406524658 -0.3760013580322266 4.636661529541016 C -0.1791839599609375 5.024798393249512 0.1685538291931152 5.621239185333252 0.6859807968139648 6.201318264007568 C 1.642910957336426 7.274138450622559 2.761710643768311 7.82304859161377 4.011180877685547 7.832808494567871 L 4.045490741729736 7.832948207855225 C 5.255180835723877 7.832948207855225 6.343450546264648 7.315268516540527 7.280060768127441 6.294288635253906 C 7.820790767669678 5.704854965209961 8.187004089355469 5.077782154083252 8.384060859680176 4.680260181427002 C 8.201571464538574 4.298025608062744 7.874213218688965 3.708881855010986 7.371090888977051 3.131988525390625 C 6.433670997619629 2.057108402252197 5.296200752258301 1.507988452911377 3.990380764007568 1.499898433685303 L 3.961190700531006 1.499808311462402 M 3.961193561553955 -0.00019073486328125 C 3.974196434020996 -0.00019073486328125 3.986528873443604 -0.000152587890625 3.999580860137939 -7.152557373046875e-05 C 8.363630294799805 0.02696800231933594 9.968380928039551 4.525388240814209 9.999220848083496 4.666348457336426 C 10.03006076812744 4.807318687438965 8.236522674560547 9.365887641906738 3.999580860137939 9.332768440246582 C -0.2374095916748047 9.299657821655273 -1.985869407653809 4.770858287811279 -2.000049591064453 4.666348457336426 C -2.014196395874023 4.562150955200195 -0.3736181259155273 -0.00019073486328125 3.961193561553955 -0.00019073486328125 Z" stroke="none" fill="#000"/>
    </g>
    <circle id="Ellipse_60" data-name="Ellipse 60" cx="2" cy="2" r="2" transform="translate(1036 613.667)" fill="none" stroke="#000" stroke-width="1.5"/>
  </g>
</svg>
