<svg xmlns="http://www.w3.org/2000/svg" width="13" height="13" viewBox="0 0 13 13">
  <g id="layer1" transform="translate(0 -604.362)">
    <path id="path3358" d="M6.5,604.362a6.5,6.5,0,1,0,6.5,6.5,6.5,6.5,0,0,0-6.5-6.5Zm-1.219,1.625H7.719v.4l-.6,6.1H5.886l-.6-6.1Zm1.21,7.313a1.174,1.174,0,0,1,.477.1,1.218,1.218,0,0,1,.656.658,1.2,1.2,0,0,1-.262,1.335,1.2,1.2,0,0,1-.393.251,1.173,1.173,0,0,1-.477.1,1.23,1.23,0,0,1-.471-.09,1.152,1.152,0,0,1-.644-.632,1.2,1.2,0,0,1-.1-.484,1.183,1.183,0,0,1,.1-.477,1.283,1.283,0,0,1,.256-.393,1.248,1.248,0,0,1,.387-.264A1.159,1.159,0,0,1,6.491,613.3Z" fill="#232932"/>
  </g>
</svg>
