<svg xmlns="http://www.w3.org/2000/svg" width="82.979" height="30.481" viewBox="0 0 82.979 30.481">
  <g id="Group_1217" data-name="Group 1217" transform="translate(-11.2 -10.9)">
    <path id="Path_864" data-name="Path 864" d="M28.822,45.356a.778.778,0,0,0-1.045.015,6.689,6.689,0,0,1-4.839,1.986,6.99,6.99,0,0,1-3.51-.866,6.1,6.1,0,0,1-2.4-2.4,7.543,7.543,0,0,1,0-7.019,6.1,6.1,0,0,1,2.4-2.4,6.99,6.99,0,0,1,3.51-.866,6.721,6.721,0,0,1,4.839,1.956.763.763,0,0,0,1.045.015l2.046-1.9a.762.762,0,0,0,.03-1.09,10.27,10.27,0,0,0-3.211-2.21A12.435,12.435,0,0,0,22.7,29.6,12.193,12.193,0,0,0,16.815,31a10.5,10.5,0,0,0-4.122,3.913,11.416,11.416,0,0,0,0,11.29A10.357,10.357,0,0,0,16.8,50.12a12.158,12.158,0,0,0,5.854,1.4,12.56,12.56,0,0,0,5-.971,9.694,9.694,0,0,0,3.241-2.24.762.762,0,0,0-.03-1.09Z" transform="translate(0 -15.907)" fill="#fff"/>
    <path id="Path_865" data-name="Path 865" d="M177.46,64.375a10.408,10.408,0,0,0-9.214,0,8.01,8.01,0,0,0-3.2,2.987,8.731,8.731,0,0,0,0,8.662,8.01,8.01,0,0,0,3.2,2.987,9.739,9.739,0,0,0,4.615,1.075,9.637,9.637,0,0,0,4.6-1.075,7.97,7.97,0,0,0,3.181-2.987,8.731,8.731,0,0,0,0-8.662A8.169,8.169,0,0,0,177.46,64.375Zm-1.628,10.6a3.93,3.93,0,0,1-2.987,1.225,3.986,3.986,0,0,1-3-1.225,5.165,5.165,0,0,1,0-6.571,3.986,3.986,0,0,1,3-1.225,3.93,3.93,0,0,1,2.987,1.225A4.578,4.578,0,0,1,177,71.693,4.515,4.515,0,0,1,175.832,74.979Z" transform="translate(-129.895 -44.574)" fill="#fff"/>
    <path id="Path_866" data-name="Path 866" d="M316.923,11.811V20.7a6.174,6.174,0,0,0-4.869-1.971,8.449,8.449,0,0,0-4.167,1.03A7.494,7.494,0,0,0,304.96,22.7a9,9,0,0,0-1.06,4.421,9,9,0,0,0,1.06,4.421,7.4,7.4,0,0,0,2.927,2.942,8.449,8.449,0,0,0,4.167,1.03,6.23,6.23,0,0,0,5.093-2.121v1.045a.835.835,0,0,0,.836.836h2.808a.867.867,0,0,0,.866-.866V11.677a.771.771,0,0,0-.777-.777h-3.032A.918.918,0,0,0,316.923,11.811ZM315.832,30.4a3.942,3.942,0,0,1-2.972,1.225,3.985,3.985,0,0,1-3-1.225,4.523,4.523,0,0,1-1.18-3.286,4.523,4.523,0,0,1,1.18-3.286,3.985,3.985,0,0,1,3-1.225,3.942,3.942,0,0,1,2.972,1.225,4.523,4.523,0,0,1,1.18,3.286A4.523,4.523,0,0,1,315.832,30.4Z" transform="translate(-248.988)" fill="#fff"/>
    <path id="Path_867" data-name="Path 867" d="M462.662,64.91h-3.3a.784.784,0,0,0-.717.478l-4.406,10.573L449.8,65.582c-.358-.851-.732-.672-1.658-.672h-2a.882.882,0,0,0-.806,1.24l6.526,15.173-.06.149a3.985,3.985,0,0,1-1.09,1.553,2.478,2.478,0,0,1-1.568.463,3.9,3.9,0,0,1-1.4-.269,5.8,5.8,0,0,1-.687-.329.66.66,0,0,0-.926.269L445.04,85.3a.707.707,0,0,0,.239.926,6.11,6.11,0,0,0,1.508.7,8.069,8.069,0,0,0,2.509.388,6.857,6.857,0,0,0,3.987-1.15,8.554,8.554,0,0,0,2.778-3.972l7.079-16.637A.5.5,0,0,0,462.662,64.91Z" transform="translate(-368.981 -45.931)" fill="#fff"/>
  </g>
</svg>
