<svg xmlns="http://www.w3.org/2000/svg" width="136.118" height="50" viewBox="0 0 136.118 50">
  <g id="Group_1217" data-name="Group 1217" transform="translate(-11.2 -10.9)">
    <path id="Path_864" data-name="Path 864" d="M40.107,55.445a1.277,1.277,0,0,0-1.715.024,10.972,10.972,0,0,1-7.937,3.258A11.466,11.466,0,0,1,24.7,57.307a10.013,10.013,0,0,1-3.944-3.944,12.373,12.373,0,0,1,0-11.514A10.013,10.013,0,0,1,24.7,37.9a11.466,11.466,0,0,1,5.757-1.421,11.026,11.026,0,0,1,7.937,3.209,1.251,1.251,0,0,0,1.715.025l3.356-3.111a1.25,1.25,0,0,0,.049-1.788,16.847,16.847,0,0,0-5.267-3.626A20.4,20.4,0,0,0,30.063,29.6a20,20,0,0,0-9.652,2.3,17.224,17.224,0,0,0-6.761,6.418,17.68,17.68,0,0,0-2.45,9.26,17.557,17.557,0,0,0,2.45,9.26,16.99,16.99,0,0,0,6.737,6.418,19.943,19.943,0,0,0,9.6,2.3A20.6,20.6,0,0,0,38.2,63.97,15.9,15.9,0,0,0,43.513,60.3a1.25,1.25,0,0,0-.049-1.788Z" transform="translate(0 -14.119)"/>
    <path id="Path_865" data-name="Path 865" d="M186.144,65.064a17.073,17.073,0,0,0-15.115,0,13.14,13.14,0,0,0-5.242,4.9,14.321,14.321,0,0,0,0,14.209,13.14,13.14,0,0,0,5.242,4.9,15.976,15.976,0,0,0,7.57,1.764,15.808,15.808,0,0,0,7.545-1.764,13.074,13.074,0,0,0,5.218-4.9,14.322,14.322,0,0,0,0-14.209A13.4,13.4,0,0,0,186.144,65.064Zm-2.67,17.393a6.447,6.447,0,0,1-4.9,2.009,6.538,6.538,0,0,1-4.924-2.009,8.472,8.472,0,0,1,0-10.779,6.538,6.538,0,0,1,4.924-2.009,6.447,6.447,0,0,1,4.9,2.009,7.51,7.51,0,0,1,1.911,5.39A7.406,7.406,0,0,1,183.474,82.457Z" transform="translate(-115.292 -39.563)"/>
    <path id="Path_866" data-name="Path 866" d="M325.262,12.394V26.971a10.128,10.128,0,0,0-7.986-3.234,13.859,13.859,0,0,0-6.835,1.69,12.292,12.292,0,0,0-4.8,4.826A14.769,14.769,0,0,0,303.9,37.5a14.769,14.769,0,0,0,1.739,7.251,12.135,12.135,0,0,0,4.8,4.826,13.859,13.859,0,0,0,6.835,1.69c3.65,0,6.419-1.151,8.354-3.479v1.715A1.37,1.37,0,0,0,327,50.88h4.606a1.422,1.422,0,0,0,1.421-1.421V12.174a1.265,1.265,0,0,0-1.274-1.274h-4.973A1.506,1.506,0,0,0,325.262,12.394Zm-1.788,30.5A6.467,6.467,0,0,1,318.6,44.9a6.538,6.538,0,0,1-4.924-2.009,7.419,7.419,0,0,1-1.935-5.39,7.419,7.419,0,0,1,1.935-5.39,6.538,6.538,0,0,1,4.924-2.009,6.467,6.467,0,0,1,4.875,2.009,7.419,7.419,0,0,1,1.935,5.39A7.419,7.419,0,0,1,323.474,42.894Z" transform="translate(-220.995 0)"/>
    <path id="Path_867" data-name="Path 867" d="M474,64.92h-5.414a1.286,1.286,0,0,0-1.176.784l-7.227,17.344-7.276-17.026c-.588-1.4-1.2-1.1-2.719-1.1H446.9a1.448,1.448,0,0,0-1.323,2.033l10.706,24.89-.1.245a6.538,6.538,0,0,1-1.788,2.548,4.065,4.065,0,0,1-2.572.759,6.4,6.4,0,0,1-2.3-.441,9.5,9.5,0,0,1-1.127-.539,1.083,1.083,0,0,0-1.519.441l-1.788,3.5a1.16,1.16,0,0,0,.392,1.519,10.022,10.022,0,0,0,2.474,1.151,13.236,13.236,0,0,0,4.116.637,11.248,11.248,0,0,0,6.541-1.886c1.813-1.249,3.307-3.43,4.557-6.516l11.612-27.291A.828.828,0,0,0,474,64.92Z" transform="translate(-327.498 -40.767)"/>
  </g>
</svg>
