<?xml version="1.0" encoding="utf-8"?>
<!-- Generator: Adobe Illustrator 27.6.1, SVG Export Plug-In . SVG Version: 6.00 Build 0)  -->
<svg version="1.1" id="Layer_1" xmlns="http://www.w3.org/2000/svg" xmlns:xlink="http://www.w3.org/1999/xlink" x="0px" y="0px"
	 viewBox="0 0 208.6 100.3" style="enable-background:new 0 0 208.6 100.3;" xml:space="preserve">
<style type="text/css">
	.st0{fill:#1A1818;}
	.st1{clip-path:url(#SVGID_00000059268976821288433160000014481408216461082795_);}
</style>
<path id="Path_2595" class="st0" d="M16.5,85.2l-3.3,9.7L10,85.2H8.4l-3.3,9.6l-3.2-9.6H0.2l4,11.8h1.8l3.2-9.4l3.2,9.4h1.8l4-11.8
	H16.5z"/>
<g id="Group_1720">
	<g>
		<defs>
			<rect id="SVGID_1_" width="208.6" height="100.3"/>
		</defs>
		<clipPath id="SVGID_00000052819166716489116980000013160329176958564504_">
			<use xlink:href="#SVGID_1_"  style="overflow:visible;"/>
		</clipPath>
		<g id="Group_1719" style="clip-path:url(#SVGID_00000052819166716489116980000013160329176958564504_);">
			<path id="Path_2596" class="st0" d="M28,93.1h-7.3c0.1,0.7,0.5,1.4,1,1.9c0.6,0.5,1.4,0.7,2.2,0.7c1,0,1.9-0.4,2.6-1.1l0.9,1
				c-0.4,0.5-0.9,0.8-1.5,1.1c-1.5,0.6-3.1,0.5-4.5-0.2c-0.7-0.4-1.3-0.9-1.7-1.6c-0.4-0.7-0.6-1.5-0.6-2.4c0-0.8,0.2-1.6,0.6-2.3
				c0.4-0.7,0.9-1.2,1.6-1.6c0.7-0.4,1.5-0.6,2.3-0.6c0.8,0,1.6,0.2,2.3,0.6c0.7,0.4,1.2,0.9,1.6,1.6c0.4,0.7,0.6,1.6,0.6,2.4
				C28,92.7,28,92.9,28,93.1 M21.7,90c-0.5,0.5-0.9,1.1-0.9,1.9h5.7c-0.1-0.7-0.4-1.4-0.9-1.8C24.4,89.1,22.8,89.1,21.7,90"/>
			<path id="Path_2597" class="st0" d="M38,88.5c0.7,0.4,1.2,0.9,1.6,1.6c0.4,0.7,0.6,1.6,0.6,2.4c0,0.8-0.2,1.7-0.6,2.4
				c-0.4,0.7-0.9,1.2-1.6,1.6c-0.7,0.4-1.5,0.6-2.3,0.6c-0.6,0-1.2-0.1-1.8-0.4c-0.5-0.3-1-0.6-1.4-1.1V97H31V84.5h1.6v4.9
				c0.4-0.5,0.8-0.8,1.4-1.1c0.6-0.2,1.2-0.4,1.8-0.4C36.5,87.9,37.3,88.1,38,88.5 M37.1,95.3c0.5-0.3,0.8-0.7,1.1-1.1
				c0.5-1,0.5-2.3,0-3.3c-0.2-0.5-0.6-0.8-1.1-1.1c-1-0.5-2.1-0.5-3.1,0c-0.5,0.3-0.8,0.6-1.1,1.1c-0.5,1-0.5,2.3,0,3.3
				c0.2,0.5,0.6,0.9,1.1,1.1C35,95.8,36.2,95.8,37.1,95.3"/>
			<path id="Path_2598" class="st0" d="M48.6,85.2h5c1.2,0,2.3,0.2,3.3,0.7c0.9,0.5,1.7,1.2,2.3,2.1c1.1,1.9,1.1,4.2,0,6.2
				c-0.5,0.9-1.3,1.6-2.3,2.1c-1,0.5-2.2,0.8-3.3,0.7h-5V85.2z M53.5,95.5c0.9,0,1.7-0.2,2.5-0.6c0.7-0.3,1.3-0.9,1.7-1.6
				c0.8-1.4,0.8-3.2,0-4.6c-0.4-0.7-1-1.2-1.7-1.6c-0.8-0.4-1.7-0.6-2.5-0.6h-3.2v8.9H53.5z"/>
			<path id="Path_2599" class="st0" d="M71.1,93.1h-7.3c0.1,0.7,0.5,1.4,1,1.9c0.6,0.5,1.4,0.7,2.2,0.7c1,0,1.9-0.4,2.6-1.1l0.9,1
				c-0.4,0.5-0.9,0.8-1.5,1.1c-1.5,0.6-3.1,0.5-4.5-0.2c-0.7-0.4-1.3-0.9-1.7-1.6c-0.4-0.7-0.6-1.5-0.6-2.4c0-0.8,0.2-1.6,0.6-2.3
				c0.4-0.7,0.9-1.2,1.6-1.6c0.7-0.4,1.5-0.6,2.3-0.6c0.8,0,1.6,0.2,2.3,0.6c0.7,0.4,1.2,0.9,1.6,1.6c0.4,0.7,0.6,1.6,0.6,2.4
				C71.1,92.7,71.1,92.9,71.1,93.1 M64.7,90c-0.5,0.5-0.9,1.1-0.9,1.9h5.7c-0.1-0.7-0.4-1.4-0.9-1.8C67.5,89.1,65.8,89.1,64.7,90"/>
			<path id="Path_2600" class="st0" d="M81.8,88L77.8,97h-1.7L72.3,88H74l3.1,7.2l3.1-7.2H81.8z"/>
			<path id="Path_2601" class="st0" d="M91.8,93.1h-7.3c0.1,0.7,0.5,1.4,1,1.9c0.6,0.5,1.4,0.7,2.2,0.7c1,0,1.9-0.4,2.6-1.1l0.9,1
				c-0.4,0.5-0.9,0.8-1.5,1.1c-1.5,0.6-3.1,0.5-4.5-0.2c-0.7-0.4-1.3-0.9-1.7-1.6c-0.4-0.7-0.6-1.5-0.6-2.4c0-0.8,0.2-1.6,0.6-2.3
				c0.4-0.7,0.9-1.2,1.6-1.6c0.7-0.4,1.5-0.6,2.3-0.6c0.8,0,1.6,0.2,2.3,0.6c0.7,0.4,1.2,0.9,1.6,1.6c0.4,0.7,0.6,1.6,0.6,2.4
				C91.8,92.7,91.8,92.9,91.8,93.1 M85.4,90c-0.5,0.5-0.9,1.1-0.9,1.9h5.7c-0.1-0.7-0.4-1.4-0.9-1.8C88.2,89.1,86.5,89.1,85.4,90"/>
			<rect id="Rectangle_2246" x="94.7" y="84.5" class="st0" width="1.6" height="12.5"/>
			<path id="Path_2602" class="st0" d="M101.5,96.5c-0.7-0.4-1.3-0.9-1.7-1.6c-0.8-1.5-0.8-3.2,0-4.7c0.4-0.7,1-1.2,1.7-1.6
				c0.7-0.4,1.6-0.6,2.4-0.6c0.8,0,1.7,0.2,2.4,0.6c0.7,0.4,1.3,0.9,1.7,1.6c0.8,1.5,0.8,3.2,0,4.7c-0.4,0.7-1,1.2-1.7,1.6
				c-0.7,0.4-1.6,0.6-2.4,0.6C103.1,97.1,102.3,96.9,101.5,96.5 M105.5,95.3c0.5-0.3,0.8-0.7,1.1-1.1c0.5-1,0.5-2.3,0-3.3
				c-0.2-0.5-0.6-0.8-1.1-1.1c-1-0.5-2.1-0.5-3.1,0c-0.5,0.3-0.8,0.6-1.1,1.1c-0.5,1-0.5,2.3,0,3.3c0.3,0.5,0.6,0.9,1.1,1.1
				C103.3,95.8,104.5,95.8,105.5,95.3"/>
			<path id="Path_2603" class="st0" d="M118.6,88.5c0.7,0.4,1.2,0.9,1.6,1.6c0.4,0.7,0.6,1.5,0.6,2.4c0,0.8-0.2,1.7-0.6,2.4
				c-0.4,0.7-0.9,1.2-1.6,1.6c-0.7,0.4-1.5,0.6-2.3,0.6c-0.6,0-1.2-0.1-1.8-0.4c-0.5-0.2-1-0.6-1.4-1.1v4.6h-1.6V88h1.6v1.4
				c0.3-0.5,0.8-0.9,1.4-1.1c0.6-0.3,1.2-0.4,1.8-0.4C117.1,87.9,117.9,88.1,118.6,88.5 M117.7,95.3c0.5-0.3,0.8-0.7,1.1-1.1
				c0.5-1,0.5-2.3,0-3.3c-0.2-0.5-0.6-0.8-1.1-1.1c-0.5-0.3-1-0.4-1.5-0.4c-0.5,0-1.1,0.1-1.5,0.4c-0.5,0.3-0.8,0.6-1.1,1.1
				c-0.3,0.5-0.4,1.1-0.4,1.6c0,0.6,0.1,1.1,0.4,1.6c0.2,0.5,0.6,0.9,1.1,1.1C115.5,95.8,116.7,95.8,117.7,95.3"/>
			<path id="Path_2604" class="st0" d="M137.6,88.9c0.7,0.8,1.1,1.8,1,2.9V97h-1.6v-5c0.1-0.7-0.2-1.4-0.6-2
				c-0.4-0.5-1.1-0.7-1.7-0.7c-0.7,0-1.4,0.2-2,0.8c-0.5,0.6-0.8,1.4-0.7,2.2V97h-1.6v-5c0.1-0.7-0.2-1.4-0.6-2
				c-0.4-0.5-1.1-0.7-1.7-0.7c-0.7,0-1.4,0.2-2,0.8c-0.5,0.6-0.8,1.4-0.7,2.2V97h-1.6V88h1.6v1.3c0.3-0.5,0.8-0.8,1.3-1.1
				c0.6-0.3,1.2-0.4,1.8-0.4c0.6,0,1.3,0.1,1.9,0.4c0.5,0.3,1,0.7,1.2,1.2c0.3-0.5,0.8-0.9,1.4-1.2c0.6-0.3,1.3-0.5,2-0.4
				C135.9,87.9,136.8,88.3,137.6,88.9"/>
			<path id="Path_2605" class="st0" d="M150.3,93.1h-7.3c0.1,0.7,0.5,1.4,1,1.9c0.6,0.5,1.4,0.7,2.2,0.7c1,0,1.9-0.4,2.6-1.1l0.9,1
				c-0.4,0.5-0.9,0.8-1.5,1.1c-1.5,0.6-3.1,0.5-4.5-0.2c-0.7-0.4-1.3-0.9-1.7-1.6c-0.4-0.7-0.6-1.5-0.6-2.4c0-0.8,0.2-1.6,0.6-2.3
				c0.4-0.7,0.9-1.2,1.6-1.6c0.7-0.4,1.5-0.6,2.3-0.6c0.8,0,1.6,0.2,2.3,0.6c0.7,0.4,1.2,0.9,1.6,1.6c0.4,0.7,0.6,1.6,0.6,2.4
				C150.3,92.7,150.3,92.9,150.3,93.1 M144,90c-0.5,0.5-0.9,1.1-0.9,1.9h5.7c-0.1-0.7-0.4-1.4-0.9-1.8C146.7,89.1,145.1,89.1,144,90
				"/>
			<path id="Path_2606" class="st0" d="M160.8,88.9c0.7,0.8,1.1,1.8,1,2.9V97h-1.6v-5c0.1-0.7-0.2-1.4-0.6-2
				c-0.5-0.5-1.1-0.7-1.8-0.7c-0.8,0-1.5,0.2-2.1,0.8c-0.5,0.6-0.8,1.4-0.8,2.2V97h-1.6V88h1.6v1.4c0.3-0.5,0.8-0.8,1.3-1.1
				c0.6-0.3,1.2-0.4,1.9-0.4C159.1,87.9,160,88.3,160.8,88.9"/>
			<path id="Path_2607" class="st0" d="M170.5,96.5c-0.3,0.2-0.6,0.4-0.9,0.5c-0.4,0.1-0.7,0.2-1.1,0.2c-0.8,0-1.5-0.2-2.1-0.7
				c-0.5-0.6-0.8-1.3-0.7-2.1v-4.9h-1.5V88h1.5v-2h1.6v2h2.6v1.3h-2.6v4.8c0,0.4,0.1,0.8,0.4,1.1c0.3,0.3,0.7,0.4,1,0.4
				c0.5,0,0.9-0.1,1.3-0.4L170.5,96.5z"/>
			<rect id="Rectangle_2247" x="178.6" y="85.2" class="st0" width="1.7" height="11.8"/>
			<path id="Path_2608" class="st0" d="M191.7,88.9c0.7,0.8,1.1,1.8,1,2.9V97h-1.6v-5c0.1-0.7-0.2-1.4-0.6-2
				c-0.5-0.5-1.1-0.7-1.8-0.7c-0.8,0-1.5,0.2-2.1,0.8c-0.5,0.6-0.8,1.4-0.8,2.2V97h-1.6V88h1.6v1.4c0.3-0.5,0.8-0.8,1.3-1.1
				c0.6-0.3,1.2-0.4,1.9-0.4C190,87.9,191,88.3,191.7,88.9"/>
			<path id="Path_2609" class="st0" d="M197.9,96.5c-0.7-0.4-1.3-0.9-1.7-1.6c-0.8-1.5-0.8-3.2,0-4.7c0.4-0.7,1-1.2,1.7-1.6
				c0.8-0.4,1.6-0.6,2.4-0.6c0.8,0,1.5,0.2,2.2,0.5c0.6,0.3,1.1,0.8,1.5,1.4l-1.2,0.8c-0.3-0.4-0.6-0.7-1-1
				c-0.4-0.2-0.9-0.3-1.4-0.3c-0.6,0-1.1,0.1-1.6,0.4c-0.5,0.3-0.8,0.6-1.1,1.1c-0.3,0.5-0.4,1.1-0.4,1.6c0,0.6,0.1,1.2,0.4,1.7
				c0.3,0.5,0.6,0.9,1.1,1.1c0.5,0.3,1,0.4,1.6,0.4c0.5,0,1-0.1,1.4-0.3c0.4-0.2,0.8-0.6,1-1l1.2,0.8c-0.3,0.6-0.9,1.1-1.5,1.4
				c-0.7,0.3-1.4,0.5-2.2,0.5C199.5,97.1,198.7,96.9,197.9,96.5"/>
			<path id="Path_2610" class="st0" d="M206.7,96.8c-0.2-0.2-0.3-0.5-0.3-0.8c0-0.3,0.1-0.6,0.3-0.8c0.2-0.2,0.5-0.3,0.8-0.3
				c0.3,0,0.6,0.1,0.8,0.3c0.2,0.2,0.3,0.5,0.3,0.8c0,0.3-0.1,0.6-0.3,0.8c-0.2,0.2-0.5,0.3-0.8,0.3C207.2,97.1,206.9,97,206.7,96.8
				"/>
			<path id="Path_2611" class="st0" d="M43.8,46.1c-0.7-0.7-1.9-0.6-2.6,0.1c-3.2,3.2-7.5,5-12,4.9c-3,0.1-6.1-0.7-8.7-2.1
				c-2.5-1.4-4.6-3.5-6-6c-1.5-2.7-2.2-5.7-2.1-8.7c-0.1-3,0.7-6.1,2.1-8.7c1.4-2.5,3.5-4.6,6-6c2.7-1.5,5.7-2.2,8.7-2.1
				c4.5-0.1,8.8,1.7,12,4.9c0.7,0.7,1.9,0.7,2.6,0l5.1-4.7c0.8-0.7,0.8-1.9,0.1-2.7c0,0,0,0,0,0c-2.3-2.3-5-4.2-8-5.5
				C37.1,7.7,32.9,6.9,28.6,7C23.5,6.9,18.5,8.1,14,10.5c-4.2,2.2-7.8,5.6-10.2,9.7c-2.5,4.2-3.8,9.1-3.7,14
				c-0.1,4.9,1.2,9.8,3.7,14c2.5,4.1,6,7.5,10.2,9.7c4.5,2.4,9.5,3.6,14.6,3.5c4.3,0.1,8.5-0.8,12.4-2.4c3-1.3,5.8-3.2,8.1-5.6
				c0.7-0.8,0.7-1.9,0-2.7c0,0,0,0,0,0L43.8,46.1z"/>
			<path id="Path_2612" class="st0" d="M90.4,22.1c-7.2-3.6-15.7-3.6-22.9,0c-3.3,1.7-6,4.3-7.9,7.4c-3.8,6.7-3.8,14.9,0,21.5
				c1.9,3.2,4.7,5.7,7.9,7.4c7.2,3.6,15.7,3.6,22.9,0c3.3-1.7,6-4.3,7.9-7.4c3.8-6.7,3.8-14.9,0-21.5C96.5,26.4,93.7,23.8,90.4,22.1
				 M86.4,48.5c-1.9,2-4.6,3.1-7.4,3c-2.8,0.1-5.5-1-7.5-3c-2-2.2-3.1-5.2-2.9-8.2c-0.1-3,0.9-5.9,2.9-8.2c1.9-2,4.7-3.1,7.5-3
				c2.8-0.1,5.5,1,7.4,3c2,2.2,3,5.2,2.9,8.2C89.5,43.3,88.4,46.3,86.4,48.5"/>
			<path id="Path_2613" class="st0" d="M141.1,2.3v22.1c-2.9-3.3-7-4.9-12.1-4.9c-3.6,0-7.2,0.8-10.4,2.6c-3.1,1.7-5.6,4.2-7.3,7.3
				c-1.8,3.4-2.7,7.2-2.6,11c-0.1,3.8,0.8,7.6,2.6,11c1.7,3.1,4.2,5.6,7.3,7.3c3.2,1.7,6.7,2.6,10.4,2.6c5.5,0,9.7-1.8,12.6-5.3v2.6
				c0,1.2,0.9,2.1,2.1,2.1l0,0h7c1.2,0,2.2-1,2.2-2.2V1.9c0-1.1-0.9-1.9-1.9-1.9c0,0,0,0,0,0h-7.5C142.1,0,141.1,1,141.1,2.3
				 M138.4,48.5c-4.1,4.1-10.7,4.1-14.8,0c-2-2.2-3.1-5.2-2.9-8.2c-0.1-3,0.9-5.9,2.9-8.2c4.1-4.1,10.7-4.1,14.8,0
				c2,2.2,3.1,5.2,2.9,8.2C141.5,43.3,140.4,46.3,138.4,48.5"/>
			<path id="Path_2614" class="st0" d="M205.1,20.1h-8.2c-0.8,0-1.5,0.5-1.8,1.2l-10.9,26.3l-11-25.8c-0.9-2.1-1.8-1.7-4.1-1.7h-5
				c-1.2,0-2.2,1-2.2,2.2c0,0.3,0.1,0.6,0.2,0.9l16.2,37.7l-0.2,0.4c-0.6,1.5-1.5,2.8-2.7,3.9c-1.1,0.8-2.5,1.2-3.9,1.2
				c-1.2,0-2.4-0.2-3.5-0.7c-0.6-0.2-1.2-0.5-1.7-0.8c-0.8-0.5-1.8-0.2-2.2,0.6c0,0,0,0.1-0.1,0.1l-2.7,5.3
				c-0.4,0.8-0.2,1.8,0.6,2.3c1.2,0.7,2.4,1.3,3.8,1.7c2,0.6,4.1,1,6.2,1c3.5,0.1,7-0.9,9.9-2.9c2.7-1.9,5-5.2,6.9-9.9l17.6-41.4
				c0.3-0.6,0-1.3-0.6-1.5C205.4,20.1,205.3,20.1,205.1,20.1"/>
		</g>
	</g>
</g>
</svg>
