<svg id="Group_1598" data-name="Group 1598" xmlns="http://www.w3.org/2000/svg" xmlns:xlink="http://www.w3.org/1999/xlink" width="87.196" height="39.997" viewBox="0 0 87.196 39.997">
  <defs>
    <clipPath id="clip-path">
      <rect id="Rectangle_2041" data-name="Rectangle 2041" width="87.196" height="39.997" fill="none" stroke="#000" stroke-width="0.5"/>
    </clipPath>
  </defs>
  <g id="Group_1597" data-name="Group 1597" clip-path="url(#clip-path)">
    <path id="Path_2483" data-name="Path 2483" d="M29.814,37.463a.791.791,0,0,0-1.081.022,6.854,6.854,0,0,1-4.989,2.045,7.3,7.3,0,0,1-3.624-.891,6.33,6.33,0,0,1-2.484-2.484,7.823,7.823,0,0,1,0-7.249,6.33,6.33,0,0,1,2.484-2.484,7.3,7.3,0,0,1,3.624-.891,6.9,6.9,0,0,1,4.989,2.02.793.793,0,0,0,1.078.019l2.115-1.952a.784.784,0,0,0,.027-1.124,10.35,10.35,0,0,0-3.319-2.275,12.751,12.751,0,0,0-5.14-1,12.626,12.626,0,0,0-6.077,1.453A10.842,10.842,0,0,0,13.168,26.7a11.106,11.106,0,0,0-1.547,5.827,11.1,11.1,0,0,0,1.547,5.827,10.843,10.843,0,0,0,4.249,4.031,12.561,12.561,0,0,0,6.046,1.453,12.866,12.866,0,0,0,5.156-1,10.162,10.162,0,0,0,3.342-2.306.784.784,0,0,0-.031-1.12Z" transform="translate(-10.038 -18.33)" fill="#1a1818"/>
    <path id="Path_2484" data-name="Path 2484" d="M198.41,60.409a10.756,10.756,0,0,0-9.514,0,8.245,8.245,0,0,0-3.3,3.078,9,9,0,0,0,0,8.936,8.242,8.242,0,0,0,3.3,3.078,10.756,10.756,0,0,0,9.514,0,8.273,8.273,0,0,0,3.281-3.078,9,9,0,0,0,0-8.936,8.276,8.276,0,0,0-3.281-3.078m-1.672,10.936a4.06,4.06,0,0,1-3.078,1.266,4.11,4.11,0,0,1-3.094-1.266,5.326,5.326,0,0,1,0-6.78,4.11,4.11,0,0,1,3.094-1.265,4.06,4.06,0,0,1,3.078,1.265,5.378,5.378,0,0,1,0,6.78" transform="translate(-159.294 -51.223)" fill="#1a1818"/>
    <path id="Path_2485" data-name="Path 2485" d="M356.3.942v9.166a6.4,6.4,0,0,0-5.031-2.031,8.732,8.732,0,0,0-4.3,1.062,7.606,7.606,0,0,0-3.015,3.031,9.233,9.233,0,0,0-1.094,4.562,9.232,9.232,0,0,0,1.094,4.562,7.6,7.6,0,0,0,3.015,3.031,8.726,8.726,0,0,0,4.3,1.062,6.428,6.428,0,0,0,5.249-2.187v1.071a.866.866,0,0,0,.866.866h2.894a.9.9,0,0,0,.9-.9V.8a.8.8,0,0,0-.8-.8h-3.127a.942.942,0,0,0-.942.942m-1.125,19.18a4.375,4.375,0,0,1-6.155,0,4.68,4.68,0,0,1-1.219-3.39,4.681,4.681,0,0,1,1.219-3.39,4.376,4.376,0,0,1,6.155,0,4.682,4.682,0,0,1,1.218,3.39,4.681,4.681,0,0,1-1.218,3.39" transform="translate(-296.167 0)" fill="#1a1818"/>
    <path id="Path_2486" data-name="Path 2486" d="M520.49,61.039h-3.41a.809.809,0,0,0-.747.5l-4.542,10.907-4.578-10.7c-.364-.879-.761-.7-1.712-.7h-2.07a.914.914,0,0,0-.84,1.275l6.732,15.66-.063.156a4.117,4.117,0,0,1-1.125,1.609,2.579,2.579,0,0,1-1.625.484,4.04,4.04,0,0,1-1.453-.281,4.356,4.356,0,0,1-.7-.344.678.678,0,0,0-.956.271l-1.13,2.2a.745.745,0,0,0,.242.962,6.326,6.326,0,0,0,1.564.722,8.546,8.546,0,0,0,2.594.406,7.007,7.007,0,0,0,4.109-1.187,8.784,8.784,0,0,0,2.859-4.093l7.3-17.163a.488.488,0,0,0-.449-.678" transform="translate(-433.782 -52.712)" fill="#1a1818"/>
    <path id="Path_2487" data-name="Path 2487" d="M6.384,263.114l-1.359,4.1H4.217L3.2,264.18l-1.031,3.034H1.359L0,263.114H.791L1.81,266.23l1.06-3.116h.7l1.037,3.133,1.048-3.133Z" transform="translate(0 -227.275)" fill="#1a1818" stroke="#000" stroke-width="0.5"/>
    <path id="Path_2488" data-name="Path 2488" d="M58.793,266.575v.638H55.718v-4.1h2.993v.638H56.479v1.066h1.98v.627h-1.98v1.13Z" transform="translate(-48.129 -227.276)" fill="#1a1818" stroke="#000" stroke-width="0.5"/>
    <path id="Path_2489" data-name="Path 2489" d="M92.465,266.1c0,.7-.551,1.113-1.6,1.113H88.822v-4.1h1.921c.984,0,1.511.416,1.511,1.066a.983.983,0,0,1-.527.9,1.009,1.009,0,0,1,.738,1.019m-2.882-2.39v1.13h1.078c.527,0,.826-.187.826-.562s-.3-.568-.826-.568Zm2.114,2.314c0-.41-.311-.592-.885-.592h-1.23v1.183h1.23c.574,0,.885-.182.885-.592" transform="translate(-76.724 -227.276)" fill="#1a1818" stroke="#000" stroke-width="0.5"/>
    <path id="Path_2490" data-name="Path 2490" d="M142,263.114H143.8a2.058,2.058,0,1,1,0,4.1H142Zm1.757,3.456a1.409,1.409,0,1,0,0-2.811h-1v2.811Z" transform="translate(-122.661 -227.276)" fill="#1a1818" stroke="#000" stroke-width="0.5"/>
    <path id="Path_2491" data-name="Path 2491" d="M184.888,266.575v.638h-3.075v-4.1h2.993v.638h-2.232v1.066h1.98v.627h-1.98v1.13Z" transform="translate(-157.049 -227.276)" fill="#1a1818" stroke="#000" stroke-width="0.5"/>
    <path id="Path_2492" data-name="Path 2492" d="M214.559,263.114l-1.786,4.1h-.75l-1.792-4.1h.826l1.365,3.163,1.376-3.163Z" transform="translate(-181.596 -227.275)" fill="#1a1818" stroke="#000" stroke-width="0.5"/>
    <path id="Path_2493" data-name="Path 2493" d="M252.558,266.575v.638h-3.075v-4.1h2.993v.638h-2.231v1.066h1.98v.627h-1.98v1.13Z" transform="translate(-215.501 -227.276)" fill="#1a1818" stroke="#000" stroke-width="0.5"/>
    <path id="Path_2494" data-name="Path 2494" d="M282.587,263.114h.761v3.456h2.144v.644h-2.905Z" transform="translate(-244.097 -227.275)" fill="#1a1818" stroke="#000" stroke-width="0.5"/>
    <path id="Path_2495" data-name="Path 2495" d="M309.931,264.793a2.21,2.21,0,1,1,2.208,2.108,2.1,2.1,0,0,1-2.208-2.108m3.649,0a1.441,1.441,0,1,0-1.441,1.441,1.4,1.4,0,0,0,1.441-1.441" transform="translate(-267.716 -226.905)" fill="#1a1818" stroke="#000" stroke-width="0.5"/>
    <path id="Path_2496" data-name="Path 2496" d="M356.012,264.572c0,.9-.668,1.458-1.745,1.458h-.925v1.183h-.761v-4.1h1.687c1.078,0,1.745.551,1.745,1.458m-.767,0c0-.515-.346-.814-1.013-.814h-.89v1.628h.89c.668,0,1.013-.3,1.013-.814" transform="translate(-304.556 -227.276)" fill="#1a1818" stroke="#000" stroke-width="0.5"/>
    <path id="Path_2497" data-name="Path 2497" d="M391.428,267.213l-.006-2.717-1.347,2.249h-.34l-1.347-2.214v2.682h-.726v-4.1h.627l1.628,2.718,1.6-2.718h.627l.006,4.1Z" transform="translate(-334.859 -227.275)" fill="#1a1818" stroke="#000" stroke-width="0.5"/>
    <path id="Path_2498" data-name="Path 2498" d="M436.093,266.575v.638h-3.075v-4.1h2.993v.638H433.78v1.066h1.98v.627h-1.98v1.13Z" transform="translate(-374.038 -227.276)" fill="#1a1818" stroke="#000" stroke-width="0.5"/>
    <path id="Path_2499" data-name="Path 2499" d="M469.765,263.114v4.1h-.627l-2.261-2.776v2.776h-.756v-4.1h.627l2.261,2.776v-2.776Z" transform="translate(-402.632 -227.275)" fill="#1a1818" stroke="#000" stroke-width="0.5"/>
    <path id="Path_2500" data-name="Path 2500" d="M502.733,263.758h-1.359v-.644h3.479v.644h-1.359v3.455h-.761Z" transform="translate(-433.083 -227.276)" fill="#1a1818" stroke="#000" stroke-width="0.5"/>
    <rect id="Rectangle_2040" data-name="Rectangle 2040" width="0.761" height="4.1" transform="translate(75.131 35.838)" fill="#1a1818" stroke="#000" stroke-width="0.5"/>
    <path id="Path_2501" data-name="Path 2501" d="M573.246,263.114v4.1h-.627l-2.261-2.776v2.776H569.6v-4.1h.627l2.261,2.776v-2.776Z" transform="translate(-492.018 -227.275)" fill="#1a1818" stroke="#000" stroke-width="0.5"/>
    <path id="Path_2502" data-name="Path 2502" d="M606.576,264.793a2.218,2.218,0,0,1,3.819-1.423l-.492.463a1.44,1.44,0,0,0-1.1-.48,1.441,1.441,0,1,0,0,2.882,1.425,1.425,0,0,0,1.1-.486l.492.469a2.218,2.218,0,0,1-3.819-1.423" transform="translate(-523.955 -226.905)" fill="#1a1818" stroke="#000" stroke-width="0.5"/>
  </g>
</svg>