<svg xmlns="http://www.w3.org/2000/svg" width="652.991" height="239.863" viewBox="0 0 652.991 239.863">
  <g id="Group_1229" data-name="Group 1229" transform="translate(-11.2 -10.9)" opacity="0.024">
    <path id="Path_864" data-name="Path 864" d="M149.876,153.586a6.125,6.125,0,0,0-8.227.118,52.635,52.635,0,0,1-38.077,15.63c-10.342,0-19.509-2.233-27.618-6.816A48.033,48.033,0,0,1,57.034,143.6c-4.583-8.109-6.816-17.276-6.816-27.618S52.45,96.47,57.034,88.361A48.034,48.034,0,0,1,75.955,69.44c8.109-4.583,17.276-6.816,27.618-6.816a52.893,52.893,0,0,1,38.077,15.4,6,6,0,0,0,8.227.118l16.1-14.925a6,6,0,0,0,.235-8.579,80.82,80.82,0,0,0-25.267-17.393c-11.635-5.053-24.8-7.639-39.252-7.639-17.158,0-32.554,3.643-46.3,11.047A82.629,82.629,0,0,0,22.952,71.438C15.078,84.6,11.2,99.408,11.2,115.861c0,16.571,3.878,31.378,11.752,44.423a81.506,81.506,0,0,0,32.319,30.791c13.75,7.4,29.146,11.047,46.069,11.047a98.836,98.836,0,0,0,39.37-7.639,76.281,76.281,0,0,0,25.5-17.628,6,6,0,0,0-.235-8.579Z" transform="translate(0 3.277)" fill="#fff"/>
    <path id="Path_865" data-name="Path 865" d="M270.61,71.762c-10.695-5.641-22.682-8.462-36.2-8.462s-25.62,2.821-36.315,8.462a63.034,63.034,0,0,0-25.149,23.5,65.081,65.081,0,0,0-9.049,34.081,65.08,65.08,0,0,0,9.049,34.081,63.035,63.035,0,0,0,25.149,23.5q16.042,8.462,36.315,8.461c13.515,0,25.62-2.82,36.2-8.461a62.721,62.721,0,0,0,25.032-23.5,65.081,65.081,0,0,0,9.049-34.081,65.081,65.081,0,0,0-9.049-34.081A64.285,64.285,0,0,0,270.61,71.762ZM257.8,155.2c-6.111,6.464-13.985,9.637-23.5,9.637s-17.393-3.173-23.622-9.637-9.284-15.043-9.284-25.855,3.056-19.391,9.284-25.855,14.1-9.637,23.622-9.637,17.394,3.173,23.5,9.637,9.167,15.043,9.167,25.855C267.084,140.159,263.911,148.739,257.8,155.2Z" transform="translate(26.756 9.182)" fill="#fff"/>
    <path id="Path_866" data-name="Path 866" d="M406.379,18.069V87.995c-9.167-10.342-21.976-15.513-38.312-15.513a66.487,66.487,0,0,0-32.788,8.109,58.969,58.969,0,0,0-23.034,23.152c-5.523,9.989-8.344,21.624-8.344,34.787s2.821,24.8,8.344,34.787a58.212,58.212,0,0,0,23.034,23.152,66.486,66.486,0,0,0,32.788,8.109c17.511,0,30.791-5.524,40.075-16.688v8.226a6.57,6.57,0,0,0,6.581,6.581h22.094a6.821,6.821,0,0,0,6.816-6.816V17.011a6.07,6.07,0,0,0-6.111-6.111H413.666A7.223,7.223,0,0,0,406.379,18.069ZM397.8,164.384c-6.228,6.464-13.985,9.637-23.387,9.637-9.519,0-17.393-3.173-23.622-9.637s-9.284-15.043-9.284-25.855,3.056-19.391,9.284-25.855,14.1-9.637,23.622-9.637c9.4,0,17.158,3.173,23.387,9.637s9.285,15.043,9.285,25.855S404.029,157.92,397.8,164.384Z" transform="translate(51.287 0)" fill="#fff"/>
    <path id="Path_867" data-name="Path 867" d="M584.271,65.018H558.3a6.171,6.171,0,0,0-5.641,3.761l-34.668,83.206-34.9-81.678c-2.82-6.7-5.758-5.288-13.045-5.288H454.291a6.944,6.944,0,0,0-6.346,9.754l51.357,119.4-.47,1.175c-2.586,5.759-5.406,9.754-8.579,12.222s-7.286,3.643-12.34,3.643a30.7,30.7,0,0,1-11.047-2.115,45.6,45.6,0,0,1-5.406-2.586,5.194,5.194,0,0,0-7.286,2.115l-8.579,16.806a5.565,5.565,0,0,0,1.881,7.286,48.081,48.081,0,0,0,11.869,5.523,63.5,63.5,0,0,0,19.744,3.056c12.222,0,22.682-3.056,31.378-9.049s15.866-16.453,21.859-31.261l55.705-130.92A3.972,3.972,0,0,0,584.271,65.018Z" transform="translate(76.004 9.461)" fill="#fff"/>
  </g>
</svg>
