<svg xmlns="http://www.w3.org/2000/svg" xmlns:xlink="http://www.w3.org/1999/xlink" width="14" height="12.502" viewBox="0 0 14 12.502">
  <defs>
    <clipPath id="clip-path">
      <rect id="Rectangle_2334" data-name="Rectangle 2334" width="14" height="12.502" fill="#fff"/>
    </clipPath>
  </defs>
  <g id="Group_1795" data-name="Group 1795" clip-path="url(#clip-path)">
    <path id="Path_2846" data-name="Path 2846" d="M96.073,227.75c-.407.192-.812.389-1.223.574a3.24,3.24,0,0,1-1.173.329c-.2.01-.39.026-.585.028a2.816,2.816,0,0,1-1.271-.3c-.462-.228-.9-.5-1.353-.752-.314-.178-.621-.368-.942-.532a2.618,2.618,0,0,0-.484-.138v-.176a.716.716,0,0,0,.029-.142q0-1.572,0-3.143a.617.617,0,0,0-.027-.126v-.181h1.778c.045.117.106.137.187.031l.265-.051c.023.016.062.065.108.074a4.447,4.447,0,0,1,1.365.692c.184.109.379.2.572.292a.367.367,0,0,0,.149.011c.578,0,1.155,0,1.733,0a1.17,1.17,0,0,1,.729.222,1.052,1.052,0,0,1,.421.752,1.107,1.107,0,0,1-.429,1.04.969.969,0,0,1-.631.218h-.065c-.593,0-1.185,0-1.778,0a.288.288,0,0,0-.283.231.259.259,0,0,0,.285.267c.6,0,1.206,0,1.809.007.025.028.06.085.072.08a.509.509,0,0,0,.115-.083,1.626,1.626,0,0,0,1.34-2.12c.147-.045.293-.092.44-.135.5-.147,1-.288,1.5-.44a1.4,1.4,0,0,1,.808-.06l.066.024a.939.939,0,0,1,.645.852.885.885,0,0,1-.294.751c-.031.029-.094.025-.142.036l-.053.054c-.15.094-.293.2-.451.28-.376.189-.759.366-1.139.546l-1.973.931-.034.024h0l-.092.039" transform="translate(-86.254 -216.179)" fill="#fff"/>
    <path id="Path_2847" data-name="Path 2847" d="M2.162,212.748a.842.842,0,0,1-.787.29c-.312-.013-.624,0-.937,0a.416.416,0,0,1-.4-.452c.007-.079-.027-.16-.027-.241,0-1.2.005-2.394-.006-3.591a.488.488,0,0,1,.444-.466c.385-.006.772-.027,1.155,0a.726.726,0,0,1,.716.762c.014,1.072.009,2.144,0,3.216a1.892,1.892,0,0,1-.122.457l-.03.025m-.781-3.166c0-.171-.066-.236-.24-.235s-.229.072-.229.234.07.234.228.235c.174,0,.24-.064.24-.234" transform="translate(0 -201.752)" fill="#fff"/>
    <path id="Path_2848" data-name="Path 2848" d="M196.043,4h0a.242.242,0,0,0-.027-.117.306.306,0,0,0-.193-.113.466.466,0,0,0-.184-.023l-.081,0c-.173,0-.346,0-.518,0l-.21,0-.017,0c0-.255,0-.51,0-.765q0-1.367-.006-2.734a.275.275,0,0,0-.308-.25h-2.945a.275.275,0,0,0-.308.25q0,1.367-.006,2.734c0,.255,0,.51,0,.765l-.017,0-.21,0c-.173,0-.346,0-.518,0l-.081,0a.466.466,0,0,0-.184.023.306.306,0,0,0-.193.113A.241.241,0,0,0,190,4h0v.032l0,0a.375.375,0,0,0,.106.2c.447.468.885.944,1.324,1.419.26.281.517.564.775.846l.041,0,.115.124c0,.009,0,.019-.008.029.149.164.3.331.449.49a.267.267,0,0,0,.432,0c.154-.16.3-.327.449-.49,0-.011-.006-.02-.008-.029l.115-.124.041,0c.258-.282.515-.566.775-.846.44-.475.878-.951,1.324-1.419a.375.375,0,0,0,.106-.2l0,0c0-.011,0-.021,0-.032" transform="translate(-184.053 -0.001)" fill="#fff"/>
    <path id="Path_2849" data-name="Path 2849" d="M287.842,344.613a.505.505,0,0,1-.115.083c-.012,0-.047-.052-.072-.08l.187,0" transform="translate(-278.649 -333.824)" fill="#fff"/>
    <path id="Path_2850" data-name="Path 2850" d="M307.285,207.821c-.035-.121-.014-.143.148-.158l-.148.158" transform="translate(-297.651 -201.162)" fill="#fff"/>
    <path id="Path_2851" data-name="Path 2851" d="M146.094,223.836c-.082.106-.143.085-.187-.031l.188.031" transform="translate(-141.338 -216.798)" fill="#fff"/>
    <path id="Path_2852" data-name="Path 2852" d="M313.609,368.351l.092-.039-.047.085-.045-.045" transform="translate(-303.791 -356.781)" fill="#fff"/>
    <path id="Path_2853" data-name="Path 2853" d="M286.621,328.669h.065l-.032.045-.032-.045" transform="translate(-277.648 -318.378)" fill="#fff"/>
    <path id="Path_2854" data-name="Path 2854" d="M190.027,126.975,190,127l.026-.025" transform="translate(-184.053 -123)" fill="#fff"/>
    <path id="Path_2855" data-name="Path 2855" d="M190.035,128.8l.024.023-.024-.023" transform="translate(-184.085 -124.768)" fill="#fff"/>
    <path id="Path_2856" data-name="Path 2856" d="M69.051,350.464l.03-.025-.03.025" transform="translate(-66.889 -339.468)" fill="#fff"/>
    <path id="Path_2857" data-name="Path 2857" d="M316.506,367.613l.034-.024-.034.024" transform="translate(-306.597 -356.081)" fill="#fff"/>
  </g>
</svg>
