<svg xmlns="http://www.w3.org/2000/svg" width="13.005" height="13" viewBox="0 0 13.005 13">
  <path id="Subtraction_1" data-name="Subtraction 1" d="M10.3,13H2.709a1.082,1.082,0,0,1-1.084-1.083V7.042H.677A.678.678,0,0,1,0,6.365a.687.687,0,0,1,.2-.482L6.221.113a.406.406,0,0,1,.562,0L12.8,5.877a.709.709,0,0,1,.153.227.67.67,0,0,1,.053.261.678.678,0,0,1-.677.677h-.948v4.875A1.083,1.083,0,0,1,10.3,13ZM7.861,9.052a.937.937,0,1,0,.366.074A.934.934,0,0,0,7.861,9.052Zm-2.718,0a.937.937,0,1,0,.366.074A.934.934,0,0,0,5.144,9.052ZM7.861,6.335a.937.937,0,1,0,.366.074A.934.934,0,0,0,7.861,6.335Zm-2.718,0a.937.937,0,1,0,.366.074A.934.934,0,0,0,5.144,6.335Z" transform="translate(0 0)" fill="#fff"/>
</svg>
