<svg xmlns="http://www.w3.org/2000/svg" width="13.014" height="13.636" viewBox="0 0 13.014 13.636">
  <path id="_003-setting" data-name="003-setting" d="M13.248,8.2l0,0-.8-.734a5.686,5.686,0,0,0,0-1.284l.8-.737a.993.993,0,0,0,.183-1.213L12.489,2.6a.986.986,0,0,0-1.15-.448L10.3,2.475a5.233,5.233,0,0,0-1.11-.644L8.954.766A.974.974,0,0,0,8,0H6.11a.974.974,0,0,0-.955.766l-.24,1.064a5.247,5.247,0,0,0-1.11.644L2.768,2.148a.982.982,0,0,0-1.146.444L.675,4.231A.992.992,0,0,0,.864,5.442l.8.734a5.642,5.642,0,0,0,0,1.284L.86,8.2A.993.993,0,0,0,.677,9.41l.942,1.629a.987.987,0,0,0,1.15.448L3.8,11.161a5.233,5.233,0,0,0,1.11.644l.24,1.064a.975.975,0,0,0,.956.766H8a.974.974,0,0,0,.955-.766l.24-1.065a5.219,5.219,0,0,0,1.11-.644l1.037.327a.985.985,0,0,0,1.146-.444L13.435,9.4A.991.991,0,0,0,13.248,8.2ZM8.213,9.6a.634.634,0,0,1-.636.631H6.532A.656.656,0,0,1,5.9,9.494V9.188H8.213Zm.46-1.682a1.219,1.219,0,0,0-.443.7H5.884a1.069,1.069,0,0,0-.415-.676A2.512,2.512,0,0,1,4.5,5.9,2.57,2.57,0,0,1,7.015,3.41,2.537,2.537,0,0,1,8.674,7.915Z" transform="translate(-0.548)" fill="#fff"/>
</svg>
