<svg xmlns="http://www.w3.org/2000/svg" width="15.948" height="15.994" viewBox="0 0 15.948 15.994">
  <g id="Group_1092" data-name="Group 1092" transform="matrix(0.966, -0.259, 0.259, 0.966, -566.903, -53.358)">
    <g id="Path_586" data-name="Path 586" transform="translate(541.669 200.38) rotate(60)" fill="none">
      <path d="M5.479,0A5.535,5.535,0,0,1,11,5.5a5.44,5.44,0,0,1-5.479,5.456A5.535,5.535,0,0,1,0,5.456,5.44,5.44,0,0,1,5.479,0Z" stroke="none"/>
      <path d="M 5.458831310272217 1.999992370605469 C 4.525511264801025 1.999992370605469 3.651731014251709 2.361062049865723 2.998471260070801 3.016682147979736 C 2.351301193237305 3.666172027587891 1.996710777282715 4.530022144317627 2.000020980834961 5.449092388153076 C 2.006940841674805 7.373621940612793 3.588490962982178 8.944982528686523 5.525260925292969 8.951922416687012 L 5.538580894470215 8.95195198059082 C 6.471900939941406 8.95195198059082 7.3456711769104 8.590882301330566 7.998930931091309 7.935272216796875 C 8.646100997924805 7.285772323608398 9.000691413879395 6.421922206878662 8.997381210327148 5.502861976623535 C 8.990461349487305 3.578322410583496 7.408910751342773 2.006961822509766 5.472151279449463 2.000021934509277 L 5.458831310272217 1.999992370605469 M 5.458832740783691 -3.814697265625e-06 C 5.46568489074707 -3.814697265625e-06 5.472163200378418 7.62939453125e-06 5.479021072387695 3.24249267578125e-05 C 8.515840530395508 0.01091194152832031 10.98649120330811 2.471382141113281 10.99737071990967 5.495662212371826 C 11.00824069976807 8.519931793212891 8.555095672607422 10.96278190612793 5.518391132354736 10.95191192626953 C 2.481560707092285 10.94103240966797 0.01091098785400391 8.480562210083008 3.147125244140625e-05 5.456292152404785 C -0.01081466674804688 2.438841819763184 2.431501388549805 -3.814697265625e-06 5.458832740783691 -3.814697265625e-06 Z" stroke="none" fill="#fff"/>
    </g>
    <path id="Path_585" data-name="Path 585" d="M0,0V4.7" transform="translate(535.442 210.363) rotate(60)" fill="none" stroke="#fff" stroke-linecap="round" stroke-width="2"/>
  </g>
</svg>
