<svg xmlns="http://www.w3.org/2000/svg" width="12.948" height="12.95" viewBox="0 0 12.948 12.95">
  <g id="_004-desktop-computer" data-name="004-desktop-computer" transform="translate(0 0.003)">
    <path id="Path_856" data-name="Path 856" d="M8.777,3.774a.407.407,0,0,1-.163-.034L5.242,2.256a.405.405,0,0,1,0-.741L8.614.031a.408.408,0,0,1,.326,0l3.372,1.484a.405.405,0,0,1,0,.741L8.94,3.74A.407.407,0,0,1,8.777,3.774Z" transform="translate(-2.302 0)" fill="#fff"/>
    <path id="Path_857" data-name="Path 857" d="M10.186,7.477a1.217,1.217,0,0,1-.975,0L7,6.505v.371a.947.947,0,0,0,.449.807A4.3,4.3,0,0,0,9.7,8.391a4.306,4.306,0,0,0,2.249-.708.946.946,0,0,0,.449-.807V6.505Z" transform="translate(-3.223 -2.997)" fill="#fff"/>
    <path id="Path_858" data-name="Path 858" d="M12,4h-.7a1.466,1.466,0,0,1-.847,1.079h1.414v5.935H1.079V5.079H2.493A1.466,1.466,0,0,1,1.646,4h-.7A.949.949,0,0,0,0,4.944v7.283a.949.949,0,0,0,.944.944H5.077a2.485,2.485,0,0,1-.68,1.16.256.256,0,0,0-.059.291.269.269,0,0,0,.248.167H8.362a.269.269,0,0,0,.248-.167.256.256,0,0,0-.059-.291,2.482,2.482,0,0,1-.685-1.16H12a.949.949,0,0,0,.944-.944V4.944A.949.949,0,0,0,12,4Z" transform="translate(0 -1.843)" fill="#fff"/>
  </g>
</svg>
