<svg id="Group_1877" data-name="Group 1877" xmlns="http://www.w3.org/2000/svg" xmlns:xlink="http://www.w3.org/1999/xlink" width="12" height="14.764" viewBox="0 0 12 14.764">
  <defs>
    <clipPath id="clip-path">
      <rect id="Rectangle_2439" data-name="Rectangle 2439" width="12" height="14.764" fill="#222"/>
    </clipPath>
  </defs>
  <g id="Group_1876" data-name="Group 1876" clip-path="url(#clip-path)">
    <path id="Path_2923" data-name="Path 2923" d="M18.2,139.027c.008-.152.018-.3.022-.455a.543.543,0,0,0-.028-.127l-.023-.023A3.843,3.843,0,0,1,18.2,138c.008-.047.074-.093.124-.122.033-.019.084,0,.128,0H28.479c.259,0,.253.065.246.241a2.684,2.684,0,0,0,.021.308l-.022.058c-.006.144-.012.288-.016.432,0,.045.006.091,0,.136-.007.161-.015.321-.023.481,0,.042,0,.084-.006.126q-.011.241-.022.481c0,.042-.006.084-.007.126q-.011.241-.02.481c0,.028.012.062,0,.085a.924.924,0,0,0-.027.579.151.151,0,0,1,0,.042l-.022.058c-.006.144-.012.288-.016.432,0,.036.021.077.012.109a4.687,4.687,0,0,0-.082,1.011,1.117,1.117,0,0,0,.022.206l-.022.058c-.005.144-.012.289-.016.433,0,.046,0,.091,0,.137-.006.161-.015.321-.021.482,0,.028.012.062,0,.085a.975.975,0,0,0-.028.594.093.093,0,0,1,0,.028l-.022.058a.268.268,0,0,0-.029.077c-.012.247-.032.5-.028.743a1.409,1.409,0,0,1-1.1,1.349l-.087.023H19.812l-.089-.024a1.319,1.319,0,0,1-1.037-.829,1.457,1.457,0,0,1-.114-.732l-.052-.058c.008-.152.018-.3.022-.455a.544.544,0,0,0-.028-.127l-.023-.023c.008-.161.017-.323.022-.484a.345.345,0,0,0-.028-.1l-.023-.023c.008-.161.017-.323.022-.484a.345.345,0,0,0-.028-.1l-.023-.023.023-.548-.052-.058c.008-.168.023-.336.022-.5,0-.214-.017-.427-.028-.64,0-.015-.018-.029-.028-.043l-.023-.023.023-.548-.052-.058c.008-.152.018-.3.022-.455a.54.54,0,0,0-.028-.128l-.023-.023c.008-.152.018-.3.022-.455a.544.544,0,0,0-.028-.128l-.023-.023c.008-.152.018-.3.022-.455a.546.546,0,0,0-.028-.128l-.023-.023.023-.548-.052-.058m2.762-.4a.2.2,0,0,0-.2.2,1.784,1.784,0,0,0-.055.312q-.005,2.873,0,5.746a2.211,2.211,0,0,0,.056.35l.022.021c0,.009,0,.021.007.028.086.1.153.2.334.164.09-.019.2.023.3-.047l.034-.024c.191-.135.165-.356.166-.534.012-1.868.009-3.736.005-5.6a3.034,3.034,0,0,0-.056-.412l-.023-.03a.43.43,0,0,0-.583-.174m5.22.2-.023-.03-.062-.088-.059-.025-.049-.032-.035-.032a.436.436,0,0,0-.637.452q0,2.959,0,5.917a.522.522,0,0,0,.025.192.44.44,0,0,0,.69.219l.034-.024c.191-.135.165-.356.166-.534.012-1.876.009-3.753.005-5.629a2.685,2.685,0,0,0-.056-.387m-2.33-.03a.484.484,0,0,0-.487-.223.454.454,0,0,0-.354.438q0,3.017,0,6.034a.361.361,0,0,0,.024.135.442.442,0,0,0,.691.219l.034-.024c.191-.135.165-.356.166-.534.012-1.868.009-3.736.005-5.6a3.04,3.04,0,0,0-.056-.412l-.023-.03" transform="translate(-17.474 -132.568)" fill="#222"/>
    <path id="Path_2924" data-name="Path 2924" d="M7.211.024,7.756.29l.032.022A1.686,1.686,0,0,1,8.3,1.845h.158c.706,0,1.412.007,2.118,0a1.728,1.728,0,0,1,.932.212,1.012,1.012,0,0,1,.284.312A1.99,1.99,0,0,1,12,3.559a2.445,2.445,0,0,1-.033.466.9.9,0,0,1-.139.248l-.034.024a.981.981,0,0,1-.271.083Q6,4.386.478,4.384a.444.444,0,0,1-.421-.224A.4.4,0,0,1,0,3.976Q0,3.465,0,2.953a1.068,1.068,0,0,1,.552-.935,1.2,1.2,0,0,1,.654-.173H3.693c0-.149.01-.3,0-.442A1.367,1.367,0,0,1,4.668.057,1.563,1.563,0,0,0,4.817,0H7.124l.087.024m-.034.985a1.14,1.14,0,0,0-.29-.082C6.273.919,5.659.921,5.045.925a.471.471,0,0,0-.426.349c-.017.188,0,.379,0,.564H7.384c0-.151.008-.295,0-.437a.5.5,0,0,0-.171-.368l-.034-.024" transform="translate(0)" fill="#222"/>
    <path id="Path_2925" data-name="Path 2925" d="M58.47,383.363l.089.025h-.087a.091.091,0,0,0,0-.025" transform="translate(-56.222 -368.624)" fill="#222"/>
    <path id="Path_2926" data-name="Path 2926" d="M18.922,168l.052.058L18.922,168" transform="translate(-18.195 -161.539)" fill="#222"/>
    <path id="Path_2927" data-name="Path 2927" d="M27.175,341.248l.052.058-.052-.058" transform="translate(-26.13 -328.128)" fill="#222"/>
    <path id="Path_2928" data-name="Path 2928" d="M24.174,278.248l.052.058-.052-.058" transform="translate(-23.245 -267.55)" fill="#222"/>
    <path id="Path_2929" data-name="Path 2929" d="M21.923,231l.052.058L21.923,231" transform="translate(-21.08 -222.117)" fill="#222"/>
    <path id="Path_2930" data-name="Path 2930" d="M20.424,199.508l.023.023-.023-.023" transform="translate(-19.639 -191.838)" fill="#222"/>
    <path id="Path_2931" data-name="Path 2931" d="M21.175,215.258l.023.023-.023-.023" transform="translate(-20.361 -206.982)" fill="#222"/>
    <path id="Path_2932" data-name="Path 2932" d="M22.675,246.758l.023.023-.023-.023" transform="translate(-21.803 -237.271)" fill="#222"/>
    <path id="Path_2933" data-name="Path 2933" d="M18.173,152.258l.023.023-.023-.023" transform="translate(-17.474 -146.404)" fill="#222"/>
    <path id="Path_2934" data-name="Path 2934" d="M24.926,294.008l.023.023-.023-.023" transform="translate(-23.968 -282.704)" fill="#222"/>
    <path id="Path_2935" data-name="Path 2935" d="M25.676,309.758l.023.023-.023-.023" transform="translate(-24.689 -297.849)" fill="#222"/>
    <path id="Path_2936" data-name="Path 2936" d="M26.426,325.508l.023.023-.023-.023" transform="translate(-25.41 -312.993)" fill="#222"/>
    <path id="Path_2937" data-name="Path 2937" d="M201.758,7.552l-.032-.022Z" transform="translate(-193.97 -7.24)" fill="#222"/>
    <path id="Path_2938" data-name="Path 2938" d="M19.674,183.758l.023.023-.023-.023" transform="translate(-18.918 -176.693)" fill="#222"/>
    <path id="Path_2939" data-name="Path 2939" d="M85.748,157.491l-.2.2a.2.2,0,0,1,.2-.2" transform="translate(-82.258 -151.436)" fill="#222"/>
    <path id="Path_2940" data-name="Path 2940" d="M222.849,159.092l-.059-.025.059.025" transform="translate(-214.224 -152.951)" fill="#222"/>
    <path id="Path_2941" data-name="Path 2941" d="M225.969,162.033l-.023-.03.023.03" transform="translate(-217.259 -155.774)" fill="#222"/>
    <path id="Path_2942" data-name="Path 2942" d="M165.965,162.036l-.023-.03.023.03" transform="translate(-159.562 -155.777)" fill="#222"/>
    <path id="Path_2943" data-name="Path 2943" d="M105.958,162.036l-.023-.03.023.03" transform="translate(-101.862 -155.777)" fill="#222"/>
    <path id="Path_2944" data-name="Path 2944" d="M220.666,157.428l-.035-.032.035.032" transform="translate(-212.148 -151.345)" fill="#222"/>
    <path id="Path_2945" data-name="Path 2945" d="M85.557,329.456l.022.021-.022-.021" transform="translate(-82.268 -316.789)" fill="#222"/>
    <path id="Path_2946" data-name="Path 2946" d="M102.665,333.163l.034-.024-.034.024" transform="translate(-98.718 -320.331)" fill="#222"/>
    <path id="Path_2947" data-name="Path 2947" d="M162.673,333.163l.034-.024-.034.024" transform="translate(-156.419 -320.331)" fill="#222"/>
    <path id="Path_2948" data-name="Path 2948" d="M222.68,333.162l.034-.024-.034.024" transform="translate(-214.119 -320.33)" fill="#222"/>
    <path id="Path_2949" data-name="Path 2949" d="M186.709,26.265l-.034-.024.034.024" transform="translate(-179.498 -25.232)" fill="#222"/>
  </g>
</svg>
