<svg xmlns="http://www.w3.org/2000/svg" width="10.757" height="13.24" viewBox="0 0 10.757 13.24">
  <g id="_006-contacts" data-name="006-contacts" transform="translate(-48)">
    <g id="Group_1215" data-name="Group 1215" transform="translate(48)">
      <path id="Path_862" data-name="Path 862" d="M58.344,1.655H57.1V.414A.414.414,0,0,0,56.689,0H49.241A1.243,1.243,0,0,0,48,1.241V11.585a1.657,1.657,0,0,0,1.655,1.655h8.689a.414.414,0,0,0,.414-.414V2.069A.414.414,0,0,0,58.344,1.655Zm-3.31,9.1H50.9a.414.414,0,0,1-.414-.414,2.071,2.071,0,0,1,2.069-2.069h.828a2.071,2.071,0,0,1,2.069,2.069A.414.414,0,0,1,55.034,10.757ZM51.31,5.793a1.655,1.655,0,1,1,1.655,1.655A1.657,1.657,0,0,1,51.31,5.793Zm4.965-4.138H49.241a.414.414,0,1,1,0-.827h7.034Z" transform="translate(-48)" fill="#fff"/>
    </g>
  </g>
</svg>
